<?xml version="1.0" standalone="no"?><!DOCTYPE svg PUBLIC "-//W3C//DTD SVG 1.1//EN" "http://www.w3.org/Graphics/SVG/1.1/DTD/svg11.dtd"><svg t="1566469372172" class="icon" viewBox="0 0 1024 1024" version="1.1" xmlns="http://www.w3.org/2000/svg" p-id="1667" xmlns:xlink="http://www.w3.org/1999/xlink" width="200" height="200"><defs><style type="text/css"></style></defs><path d="M864 160H544a32 32 0 0 1 0-64h320a32 32 0 0 1 0 64zM864 544H544a32 32 0 0 1 0-64h320a32 32 0 0 1 0 64z" fill="#4A8BFE" p-id="1668"></path><path d="M480 352H160a32 32 0 0 1 0-64h320a32 32 0 0 1 0 64zM480 736H160a32 32 0 0 1 0-64h320a32 32 0 0 1 0 64z" fill="#3BD5B3" p-id="1669"></path><path d="M864 928H544a32 32 0 0 1 0-64h320a32 32 0 0 1 0 64z" fill="#4A8BFE" p-id="1670"></path></svg>