<?xml version="1.0" standalone="no"?><!DOCTYPE svg PUBLIC "-//W3C//DTD SVG 1.1//EN" "http://www.w3.org/Graphics/SVG/1.1/DTD/svg11.dtd"><svg t="1566468186156" class="icon" viewBox="0 0 1024 1024" version="1.1" xmlns="http://www.w3.org/2000/svg" p-id="2006" xmlns:xlink="http://www.w3.org/1999/xlink" width="200" height="200"><defs><style type="text/css"></style></defs><path d="M213.622154 139.579077c138.161231-14.178462 278.055385-14.651077 416.216615-0.157539 50.254769 8.507077 105.708308 10.24 148.558769 40.96 4.726154 39.699692 2.520615 79.714462 2.678154 119.571693-2.835692 17.329231 5.986462 43.323077-15.596307 51.357538-56.556308 25.993846-120.201846 29.774769-181.32677 36.233846-127.133538 8.192-255.369846 8.507077-382.030769-5.986461-45.528615-7.404308-93.577846-12.288-133.435077-37.179077-4.883692-55.453538-6.616615-112.167385 0.945231-167.463385 43.638154-25.521231 94.995692-29.932308 143.990154-37.336615zM64.590769 433.545846c112.482462 50.727385 239.931077 46.158769 360.763077 49.939692 119.414154-4.411077 246.232615 1.575385 356.667077-51.042461-0.945231 28.041846-1.575385 55.926154-2.363077 83.968 34.816 0 69.789538 0.315077 104.605539 0.945231v41.747692c13.233231 0.157538 39.699692 0.787692 52.932923 0.945231 1.260308 39.699692 1.732923 79.399385 0.94523 118.941538 22.370462 14.020923 44.898462 27.884308 67.268924 42.062769-20.007385 44.583385-38.281846 89.954462-62.857847 132.332308-18.904615-44.110769 23.000615-84.125538 35.131077-124.770461-61.44-35.761231-122.722462-71.837538-184.32-107.283693 0.945231 92.002462 0.945231 184.004923 0.157539 275.849846 32.295385 12.918154 67.899077 36.864 102.242461 15.596308 39.384615-16.384 109.961846-43.795692 128.07877 14.178462-40.802462-16.068923-82.392615-12.130462-120.832 7.246769-66.953846 34.028308-125.400615-40.329846-192.984616-31.822769-42.220308 9.452308-78.139077 55.926154-124.140308 36.233846-23.315692-5.198769-38.596923-23.158154-49.624615-43.165539 30.247385 10.397538 60.494769 20.164923 90.584615 30.404923-10.870154-32.925538-22.685538-65.536-34.500923-98.146461-81.447385 8.192-163.524923 12.130462-245.287384 7.246769-94.680615-5.986462-192.512-7.561846-280.733539-46.473846-0.787692-49.782154-0.315077-99.564308-1.732923-149.188923 33.870769 16.068923 69.474462 28.514462 106.968616 33.083077 147.456 22.843077 297.432615 18.904615 445.991384 9.609846l-0.945231-61.124923c-135.798154 11.500308-272.856615 11.972923-408.49723-2.363077-47.576615-7.719385-98.934154-11.342769-140.051693-39.069538-5.041231-48.364308-1.417846-97.201231-3.465846-145.880616m639.133539 104.605539l-2.048 20.48c57.974154 0.157538 116.578462 4.568615 174.237538-4.883693-51.2-31.350154-115.475692-9.924923-172.189538-15.596307m-64.748308 127.448615c48.521846-25.521231 97.043692-51.515077 146.353231-75.933538 42.850462 26.939077 86.646154 52.145231 130.599384 77.036307 0-28.356923-0.157538-56.871385-0.315077-85.385846-92.317538-0.472615-184.635077 0.472615-276.952615-0.945231 0 28.514462 0.157538 56.871385 0.315077 85.228308m-62.227692 57.501538c22.843077 61.124923 45.528615 122.249846 67.426461 183.689847 38.912-25.048615 83.810462-33.555692 128.708923-20.637539-2.993231-88.694154-2.993231-177.545846 0.472616-266.24-65.693538 34.343385-131.229538 68.529231-196.608 103.187692z" fill="#008AFF" p-id="2007"></path></svg>